<svg xmlns="http://www.w3.org/2000/svg" version="1.1" xmlns:xlink="http://www.w3.org/1999/xlink" xmlns:svgjs="http://svgjs.dev/svgjs" width="1000" height="1000" viewBox="0 0 1000 1000"><rect width="1000" height="1000" fill="#ffffff"></rect><g transform="matrix(0.7,0,0,0.7,149.57575757575756,282.1265587044535)"><svg viewBox="0 0 396 247" data-background-color="#97c6f0" preserveAspectRatio="xMidYMid meet" height="623" width="1000" xmlns="http://www.w3.org/2000/svg" xmlns:xlink="http://www.w3.org/1999/xlink"><g id="tight-bounds" transform="matrix(1,0,0,1,0.2400000000000091,-0.09999999999999432)"><svg viewBox="0 0 395.52 247.2" height="247.2" width="395.52"><g><svg></svg></g><g><svg viewBox="0 0 395.52 247.2" height="247.2" width="395.52"><g transform="matrix(1,0,0,1,91.96579418489281,47.215199999999996)"><svg viewBox="0 0 211.58841163021435 152.7696" height="152.7696" width="211.58841163021435"><g><svg viewBox="0 0 211.58841163021435 152.7696" height="152.7696" width="211.58841163021435"><g><svg viewBox="0 0 244.43135999999998 176.482638188696" height="152.7696" width="211.58841163021435"><g><svg viewBox="0 0 244.43135999999998 176.482638188696" height="176.482638188696" width="244.43135999999998"><g><svg viewBox="0 0 244.43135999999998 176.482638188696" height="176.482638188696" width="244.43135999999998"><g><svg viewBox="0 0 244.43135999999998 124.44009435257409" height="124.44009435257409" width="244.43135999999998"><g transform="matrix(1,0,0,1,0,0)"><svg width="244.43135999999998" viewBox="1.600000023841858 -38.849998474121094 96.13999938964844 48.94999694824219" height="124.44009435257409" data-palette-color="#2f0a94"><path d="M1.6-10.45L1.6-10.45Q1.6-12.9 2.43-14.93 3.25-16.95 4.7-18.4 6.15-19.85 8.13-20.65 10.1-21.45 12.4-21.45L12.4-21.45Q13.95-21.45 15.18-21.08 16.4-20.7 17.28-20.18 18.15-19.65 18.75-19 19.35-18.35 19.65-17.85L19.65-17.85 19.65-38.85 23.95-38.85 23.95 0 19.65 0 19.65-1.55Q19.65-1.85 19.7-2.23 19.75-2.6 19.75-2.85L19.75-2.85Q19.25-2.25 18.57-1.68 17.9-1.1 17-0.6 16.1-0.1 14.93 0.2 13.75 0.5 12.25 0.5L12.25 0.5Q9.75 0.5 7.78-0.38 5.8-1.25 4.42-2.73 3.05-4.2 2.33-6.2 1.6-8.2 1.6-10.45ZM5.9-10.5L5.9-10.5Q5.9-9.05 6.43-7.8 6.95-6.55 7.85-5.65 8.75-4.75 10-4.23 11.25-3.7 12.75-3.7L12.75-3.7Q14.25-3.7 15.53-4.23 16.8-4.75 17.73-5.68 18.65-6.6 19.15-7.83 19.65-9.05 19.65-10.5L19.65-10.5Q19.65-11.95 19.15-13.18 18.65-14.4 17.73-15.3 16.8-16.2 15.53-16.73 14.25-17.25 12.75-17.25L12.75-17.25Q11.25-17.25 10-16.73 8.75-16.2 7.85-15.3 6.95-14.4 6.43-13.18 5.9-11.95 5.9-10.5ZM44.45-5.55L47.65-2.45Q46.15-1.1 44-0.3 41.85 0.5 39.6 0.5L39.6 0.5Q37.3 0.5 35.27-0.38 33.25-1.25 31.75-2.73 30.25-4.2 29.37-6.2 28.5-8.2 28.5-10.45L28.5-10.45Q28.5-12.7 29.37-14.7 30.25-16.7 31.75-18.2 33.25-19.7 35.22-20.58 37.2-21.45 39.45-21.45L39.45-21.45Q43-21.45 45.62-19.33 48.25-17.2 49.4-13.75L49.4-13.75Q47.85-13.2 45.85-12.4 43.85-11.6 41.7-10.73 39.55-9.85 37.4-9 35.25-8.15 33.4-7.45L33.4-7.45Q34.25-5.75 35.87-4.73 37.5-3.7 39.5-3.7L39.5-3.7Q40.85-3.7 42.22-4.2 43.6-4.7 44.45-5.55L44.45-5.55ZM44.05-14.75L44.05-14.75Q43.45-16 42.15-16.63 40.85-17.25 39.5-17.25L39.5-17.25Q38.05-17.25 36.82-16.7 35.6-16.15 34.7-15.23 33.8-14.3 33.27-13.1 32.75-11.9 32.75-10.65L32.75-10.65Q32.75-10.4 32.77-10.3 32.8-10.2 32.8-10.15L32.8-10.15Q34.1-10.65 35.62-11.28 37.15-11.9 38.65-12.53 40.15-13.15 41.55-13.73 42.95-14.3 44.05-14.75ZM60.95 1.25L60.95 1.25Q58-4.35 55.42-9.83 52.85-15.3 50-20.9L50-20.9 54.65-20.9Q56.45-17.35 57.52-15.1 58.6-12.85 59.25-11.35 59.9-9.85 60.25-8.83 60.6-7.8 60.95-6.75L60.95-6.75Q61.35-7.8 61.72-8.83 62.1-9.85 62.72-11.35 63.35-12.85 64.42-15.1 65.5-17.35 67.3-20.9L67.3-20.9 71.95-20.9Q69.1-15.3 66.45-9.83 63.8-4.35 60.95 1.25ZM74.99 10.1L74.99 10.1 71.99 6.9Q73.44 5.75 74.24 4.03 75.04 2.3 75.04-0.1L75.04-0.1 75.04-20.9 79.29-20.9 79.29 0.05Q79.29 3.45 78.14 5.95 76.99 8.45 74.99 10.1ZM74.59-28.9L74.59-28.9Q74.59-30.1 75.44-30.9 76.29-31.7 77.34-31.7L77.34-31.7Q78.34-31.7 79.19-30.9 80.04-30.1 80.04-28.9L80.04-28.9Q80.04-27.7 79.19-26.93 78.34-26.15 77.34-26.15L77.34-26.15Q76.29-26.15 75.44-26.93 74.59-27.7 74.59-28.9ZM97.74-21.45L96.79-15.95Q95.39-15.95 94.09-15.58 92.79-15.2 91.77-14.45 90.74-13.7 90.14-12.58 89.54-11.45 89.54-10L89.54-10 89.54 0 85.29 0 85.29-20.9 89.04-20.9Q89.14-19.35 89.22-18.07 89.29-16.8 89.39-15.55L89.39-15.55Q90.04-16.9 91.09-18 92.14-19.1 93.34-19.85 94.54-20.6 95.69-21.03 96.84-21.45 97.74-21.45L97.74-21.45Z" opacity="1" transform="matrix(1,0,0,1,0,0)" fill="#000000" class="undefined-text-0" data-fill-palette-color="primary" id="text-0"></path></svg></g></svg></g><g transform="matrix(1,0,0,1,0,153.81741406695238)"><svg viewBox="0 0 244.43135999999998 22.665224121743613" height="22.665224121743613" width="244.43135999999998"><g transform="matrix(1,0,0,1,0,0)"><svg width="244.43135999999998" viewBox="1 -35.04999923706055 387.6700134277344 35.95000076293945" height="22.665224121743613" data-palette-color="#28048c"><path d="M18.3 0.9L18.3 0.9Q13.45 0.9 9.53-1.07 5.6-3.05 3.3-6.95 1-10.85 1-16.5L1-16.5Q1-20.8 2.4-24.05 3.8-27.3 6.23-29.5 8.65-31.7 11.83-32.8 15-33.9 18.55-33.9L18.55-33.9Q21.4-33.9 23.8-33.25 26.2-32.6 28.3-31.45L28.3-31.45 28.5-25.3 28-25.3 25.5-29.3Q25-30.25 24.4-31.03 23.8-31.8 22.9-32.2L22.9-32.2Q22.15-32.55 21.43-32.73 20.7-32.9 19.6-32.9L19.6-32.9Q16.7-32.9 14.33-31.35 11.95-29.8 10.53-26.23 9.1-22.65 9.1-16.45L9.1-16.45Q9.1-10.3 10.45-6.73 11.8-3.15 14.13-1.63 16.45-0.1 19.35-0.1L19.35-0.1Q20.95-0.1 21.9-0.33 22.85-0.55 23.8-1L23.8-1Q24.75-1.4 25.25-2.18 25.75-2.95 26.15-3.85L26.15-3.85 28.35-8.75 28.85-8.75 28.7-1.6Q26.6-0.5 24 0.2 21.4 0.9 18.3 0.9ZM43.8 0.75L43.8 0.75Q40 0.75 37.2-0.83 34.4-2.4 32.87-5.3 31.35-8.2 31.35-12.1L31.35-12.1Q31.35-16 32.97-18.85 34.6-21.7 37.42-23.25 40.25-24.8 43.8-24.8L43.8-24.8Q47.35-24.8 50.15-23.28 52.95-21.75 54.57-18.9 56.2-16.05 56.2-12.1L56.2-12.1Q56.2-8.15 54.67-5.28 53.15-2.4 50.37-0.83 47.6 0.75 43.8 0.75ZM43.8-0.25L43.8-0.25Q45.55-0.25 46.6-1.25 47.65-2.25 48.12-4.8 48.6-7.35 48.6-12L48.6-12Q48.6-16.7 48.12-19.25 47.65-21.8 46.6-22.8 45.55-23.8 43.8-23.8L43.8-23.8Q42.05-23.8 40.97-22.8 39.9-21.8 39.42-19.25 38.95-16.7 38.95-12L38.95-12Q38.95-7.35 39.42-4.8 39.9-2.25 40.97-1.25 42.05-0.25 43.8-0.25ZM69 0.75L69 0.75Q66.05 0.75 63.7-0.58 61.35-1.9 59.97-4.67 58.6-7.45 58.6-11.8L58.6-11.8Q58.6-16.2 60.15-19.07 61.7-21.95 64.25-23.38 66.8-24.8 69.8-24.8L69.8-24.8Q71.55-24.8 73.15-24.45 74.75-24.1 76-23.4L76-23.4 76-29.9Q76-30.95 75.67-31.45 75.34-31.95 74.3-32.15L74.3-32.15 73.34-32.35 73.34-32.85 82.45-35.05 83-34.6 82.8-27.6 82.8-3.15Q82.8-2.15 83.15-1.53 83.5-0.9 84.45-0.65L84.45-0.65 84.9-0.5 84.9 0 76.34 0.55 75.9-1.25Q74.55-0.35 72.82 0.2 71.09 0.75 69 0.75ZM71.9-1.1L71.9-1.1Q74-1.1 75.75-2.35L75.75-2.35 75.75-22.2Q73.9-23.4 71.95-23.4L71.95-23.4Q69.55-23.4 67.84-20.63 66.15-17.85 66.15-11.9L66.15-11.9Q66.15-5.95 67.75-3.53 69.34-1.1 71.9-1.1ZM99.64-24.8L99.64-24.8Q102.89-24.8 105.19-23.48 107.49-22.15 108.72-19.88 109.94-17.6 109.94-14.7L109.94-14.7Q109.94-14.15 109.89-13.58 109.84-13 109.69-12.55L109.69-12.55 94.79-12.55Q94.84-7.15 96.72-4.78 98.59-2.4 102.29-2.4L102.29-2.4Q104.79-2.4 106.34-3.2 107.89-4 109.24-5.55L109.24-5.55 109.74-5.1Q108.19-2.35 105.62-0.8 103.04 0.75 99.44 0.75L99.44 0.75Q95.89 0.75 93.14-0.78 90.39-2.3 88.84-5.15 87.29-8 87.29-11.95L87.29-11.95Q87.29-16.05 89.09-18.93 90.89-21.8 93.72-23.3 96.54-24.8 99.64-24.8ZM99.49-23.8L99.49-23.8Q98.04-23.8 97.02-22.93 95.99-22.05 95.42-19.83 94.84-17.6 94.79-13.55L94.79-13.55 103.34-13.55Q103.84-19 102.94-21.4 102.04-23.8 99.49-23.8ZM144.64 0L130.59 0 130.59-0.5 132.09-0.9Q133.84-1.4 133.84-3.4L133.84-3.4 133.84-12.9 125.59-29.7Q125.14-30.7 124.76-31.2 124.39-31.7 123.64-32.05L123.64-32.05 122.74-32.5 122.74-33 136.14-33 136.14-32.5 135.24-32.15Q134.14-31.7 134.04-30.93 133.94-30.15 134.44-29L134.44-29 140.34-15.9 146.94-29.5Q147.34-30.3 147.26-31.15 147.19-32 146.19-32.25L146.19-32.25 145.49-32.5 145.49-33 151.49-33 151.49-32.5 150.54-32.15Q149.59-31.8 149.14-31.18 148.69-30.55 148.24-29.6L148.24-29.6 141.39-15.2 141.39-3.4Q141.39-2.4 141.76-1.78 142.14-1.15 143.09-0.9L143.09-0.9 144.64-0.5 144.64 0ZM165.49 0.75L165.49 0.75Q161.69 0.75 158.89-0.83 156.09-2.4 154.56-5.3 153.03-8.2 153.03-12.1L153.03-12.1Q153.03-16 154.66-18.85 156.28-21.7 159.11-23.25 161.94-24.8 165.49-24.8L165.49-24.8Q169.03-24.8 171.84-23.28 174.64-21.75 176.26-18.9 177.89-16.05 177.89-12.1L177.89-12.1Q177.89-8.15 176.36-5.28 174.84-2.4 172.06-0.83 169.28 0.75 165.49 0.75ZM165.49-0.25L165.49-0.25Q167.24-0.25 168.28-1.25 169.34-2.25 169.81-4.8 170.28-7.35 170.28-12L170.28-12Q170.28-16.7 169.81-19.25 169.34-21.8 168.28-22.8 167.24-23.8 165.49-23.8L165.49-23.8Q163.74-23.8 162.66-22.8 161.59-21.8 161.11-19.25 160.64-16.7 160.64-12L160.64-12Q160.64-7.35 161.11-4.8 161.59-2.25 162.66-1.25 163.74-0.25 165.49-0.25ZM189.13 0.75L189.13 0.75Q187.18 0.75 185.56 0 183.93-0.75 183.01-2.43 182.08-4.1 182.13-6.85L182.13-6.85 182.28-19.7Q182.28-20.85 181.88-21.35 181.48-21.85 180.63-22.05L180.63-22.05 180.03-22.25 180.03-22.75 188.98-24.5 189.48-24 189.23-16.9 189.23-4.85Q189.23-3.25 190.16-2.5 191.08-1.75 192.48-1.75L192.48-1.75Q193.88-1.75 194.98-2.15 196.08-2.55 197.18-3.35L197.18-3.35 197.38-19.65Q197.38-20.8 197.03-21.28 196.68-21.75 195.73-21.95L195.73-21.95 195.23-22.1 195.23-22.6 203.98-24.5 204.48-24 204.33-16.9 204.33-3.35Q204.33-2.25 204.63-1.65 204.93-1.05 205.93-0.65L205.93-0.65 206.43-0.5 206.43 0 197.68 0.5 197.23-2.45Q195.58-1.1 193.66-0.18 191.73 0.75 189.13 0.75ZM221.38 0L208.43 0 208.43-0.5 209.18-0.7Q210.18-1 210.56-1.6 210.93-2.2 210.93-3.15L210.93-3.15 210.93-18.8Q210.93-19.9 210.56-20.43 210.18-20.95 209.18-21.15L209.18-21.15 208.43-21.35 208.43-21.85 217.03-24.75 217.53-24.25 217.98-19.95 217.98-19.55Q218.68-20.95 219.81-22.13 220.93-23.3 222.31-24.05 223.68-24.8 225.03-24.8L225.03-24.8Q226.93-24.8 227.93-23.75 228.93-22.7 228.93-21.1L228.93-21.1Q228.93-19.4 227.96-18.48 226.98-17.55 225.63-17.55L225.63-17.55Q223.53-17.55 221.93-19.65L221.93-19.65 221.83-19.75Q221.33-20.45 220.68-20.53 220.03-20.6 219.48-19.9L219.48-19.9Q218.98-19.45 218.66-18.82 218.33-18.2 218.03-17.4L218.03-17.4 218.03-3.45Q218.03-1.45 219.78-0.95L219.78-0.95 221.38-0.5 221.38 0ZM253.78 0L241.48 0 241.48-0.5 242.53-0.9Q244.13-1.55 244.13-3.45L244.13-3.45 244.13-29.55Q244.13-31.55 242.53-32.1L242.53-32.1 241.48-32.5 241.48-33 254.68-33Q259.98-33 263.8-31.03 267.63-29.05 269.7-25.38 271.78-21.7 271.78-16.55L271.78-16.55Q271.78-11.3 269.53-7.6 267.28-3.9 263.25-1.95 259.23 0 253.78 0L253.78 0ZM251.63-32L251.63-1 253.78-1Q257.38-1 259.58-2.43 261.78-3.85 262.8-7.23 263.83-10.6 263.83-16.5L263.83-16.5Q263.83-22.4 262.8-25.78 261.78-29.15 259.63-30.58 257.48-32 253.98-32L253.98-32 251.63-32ZM286.72 0L273.77 0 273.77-0.5 274.52-0.7Q275.52-1 275.9-1.6 276.27-2.2 276.27-3.15L276.27-3.15 276.27-18.8Q276.27-19.9 275.9-20.43 275.52-20.95 274.52-21.15L274.52-21.15 273.77-21.35 273.77-21.85 282.37-24.75 282.87-24.25 283.32-19.95 283.32-19.55Q284.02-20.95 285.15-22.13 286.27-23.3 287.65-24.05 289.02-24.8 290.37-24.8L290.37-24.8Q292.27-24.8 293.27-23.75 294.27-22.7 294.27-21.1L294.27-21.1Q294.27-19.4 293.3-18.48 292.32-17.55 290.97-17.55L290.97-17.55Q288.87-17.55 287.27-19.65L287.27-19.65 287.17-19.75Q286.67-20.45 286.02-20.53 285.37-20.6 284.82-19.9L284.82-19.9Q284.32-19.45 284-18.82 283.67-18.2 283.37-17.4L283.37-17.4 283.37-3.45Q283.37-1.45 285.12-0.95L285.12-0.95 286.72-0.5 286.72 0ZM308.37-24.8L308.37-24.8Q311.62-24.8 313.92-23.48 316.22-22.15 317.45-19.88 318.67-17.6 318.67-14.7L318.67-14.7Q318.67-14.15 318.62-13.58 318.57-13 318.42-12.55L318.42-12.55 303.52-12.55Q303.57-7.15 305.45-4.78 307.32-2.4 311.02-2.4L311.02-2.4Q313.52-2.4 315.07-3.2 316.62-4 317.97-5.55L317.97-5.55 318.47-5.1Q316.92-2.35 314.35-0.8 311.77 0.75 308.17 0.75L308.17 0.75Q304.62 0.75 301.87-0.78 299.12-2.3 297.57-5.15 296.02-8 296.02-11.95L296.02-11.95Q296.02-16.05 297.82-18.93 299.62-21.8 302.45-23.3 305.27-24.8 308.37-24.8ZM308.22-23.8L308.22-23.8Q306.77-23.8 305.75-22.93 304.72-22.05 304.15-19.83 303.57-17.6 303.52-13.55L303.52-13.55 312.07-13.55Q312.57-19 311.67-21.4 310.77-23.8 308.22-23.8ZM328.47 0.75L328.47 0.75Q325.57 0.75 323.59-0.9 321.62-2.55 321.62-5.65L321.62-5.65Q321.62-8 324.02-9.98 326.42-11.95 331.57-12.95L331.57-12.95Q332.37-13.1 333.37-13.28 334.37-13.45 335.47-13.65L335.47-13.65 335.47-17.6Q335.47-21 334.64-22.38 333.82-23.75 332.07-23.75L332.07-23.75Q330.87-23.75 330.17-22.98 329.47-22.2 329.27-20.3L329.27-20.3 329.17-19.75Q329.07-17.6 328.12-16.6 327.17-15.6 325.77-15.6L325.77-15.6Q324.47-15.6 323.62-16.4 322.77-17.2 322.77-18.55L322.77-18.55Q322.77-20.6 324.19-22 325.62-23.4 327.97-24.1 330.32-24.8 333.07-24.8L333.07-24.8Q337.52-24.8 339.94-22.63 342.37-20.45 342.37-15.55L342.37-15.55 342.37-4.5Q342.37-2.25 344.47-2.25L344.47-2.25 345.57-2.25 346.02-1.85Q345.07-0.65 343.94 0 342.82 0.65 340.77 0.65L340.77 0.65Q338.57 0.65 337.29-0.38 336.02-1.4 335.62-3.1L335.62-3.1Q334.12-1.5 332.54-0.38 330.97 0.75 328.47 0.75ZM331.52-2.3L331.52-2.3Q332.52-2.3 333.39-2.78 334.27-3.25 335.47-4.25L335.47-4.25 335.47-12.65Q334.97-12.55 334.47-12.45 333.97-12.35 333.32-12.25L333.32-12.25Q331.02-11.65 329.64-10.23 328.27-8.8 328.27-6.4L328.27-6.4Q328.27-4.35 329.22-3.33 330.17-2.3 331.52-2.3ZM358.82 0L347.07 0 347.07-0.5 347.77-0.7Q348.72-0.95 349.09-1.55 349.47-2.15 349.52-3.15L349.52-3.15 349.52-18.8Q349.52-19.9 349.17-20.43 348.82-20.95 347.82-21.15L347.82-21.15 347.07-21.35 347.07-21.85 355.62-24.75 356.12-24.25 356.52-20.85Q358.17-22.5 360.29-23.65 362.42-24.8 364.72-24.8L364.72-24.8Q367.12-24.8 368.57-23.83 370.02-22.85 370.77-20.8L370.77-20.8Q372.72-22.65 374.99-23.73 377.27-24.8 379.42-24.8L379.42-24.8Q382.97-24.8 384.64-23.1 386.32-21.4 386.32-17.75L386.32-17.75 386.32-3.1Q386.32-1.15 388.12-0.65L388.12-0.65 388.67-0.5 388.67 0 377.12 0 377.12-0.5 377.62-0.65Q378.57-0.95 378.94-1.55 379.32-2.15 379.32-3.15L379.32-3.15 379.32-18.45Q379.32-20.55 378.57-21.33 377.82-22.1 376.17-22.1L376.17-22.1Q374.87-22.1 373.64-21.53 372.42-20.95 371.07-19.8L371.07-19.8Q371.32-19 371.39-18.05 371.47-17.1 371.47-16.05L371.47-16.05 371.47-3.1Q371.52-1.15 373.27-0.65L373.27-0.65 373.72-0.5 373.72 0 362.12 0 362.12-0.5 362.82-0.7Q363.77-1 364.14-1.58 364.52-2.15 364.52-3.15L364.52-3.15 364.52-18.4Q364.52-20.4 363.79-21.25 363.07-22.1 361.32-22.1L361.32-22.1Q360.17-22.1 359.02-21.53 357.87-20.95 356.62-19.85L356.62-19.85 356.62-3.1Q356.62-1.15 358.37-0.65L358.37-0.65 358.82-0.5 358.82 0Z" opacity="1" transform="matrix(1,0,0,1,0,0)" fill="#000000" class="undefined-text-1" data-fill-palette-color="secondary" id="text-1"></path></svg></g></svg></g></svg></g></svg></g></svg></g></svg></g></svg></g><g><path d="M229.394 0c68.262 0 123.6 55.338 123.6 123.6 0 68.262-55.338 123.6-123.6 123.6-33.257 0-63.447-13.135-85.663-34.5h7.168c20.926 18.45 48.403 29.643 78.495 29.643 65.58 0 118.743-53.163 118.743-118.743 0-65.58-53.163-118.743-118.743-118.743-30.091 0-57.568 11.193-78.495 29.643l-7.168 0c22.217-21.365 52.406-34.5 85.663-34.5z" fill="#460de0" stroke="transparent" data-fill-palette-color="tertiary"></path></g></svg></g><defs></defs></svg><rect width="395.52" height="247.2" fill="none" stroke="none" visibility="hidden"></rect></g></svg></g></svg>